<svg xmlns="http://www.w3.org/2000/svg" viewBox="0 0 1600 1000" preserveAspectRatio="xMidYMid slice">
<style>.tw{animation:tw var(--d) ease-in-out infinite;animation-delay:var(--delay)}.twf{animation:twf var(--d) ease-in-out infinite;animation-delay:var(--delay)}@keyframes tw{0%,100%{opacity:var(--o)}50%{opacity:calc(var(--o)*0.40)}}@keyframes twf{0%,100%{opacity:var(--o)}50%{opacity:calc(var(--o)*0.72)}}@media(prefers-reduced-motion:reduce){.tw,.twf{animation:none}}</style>
<circle cx="895.6" cy="924.2" r="0.89" fill="#bdd1ff" class="tw" style="--o:0.39;--d:3.5s;--delay:-4.0s"/>
<circle cx="1268.8" cy="94.1" r="0.93" fill="#ffffff" opacity="0.5"/>
<circle cx="67.0" cy="982.2" r="1.66" fill="#ffffff" opacity="0.76"/>
<circle cx="24.0" cy="528.4" r="0.45" fill="#e8eefc" class="tw" style="--o:0.18;--d:2.9s;--delay:-4.4s"/>
<circle cx="1347.9" cy="519.1" r="1.07" fill="#bdd1ff" opacity="0.39"/>
<circle cx="445.1" cy="997.7" r="1.45" fill="#bdd1ff" opacity="0.56"/>
<circle cx="367.5" cy="289.0" r="0.46" fill="#e8eefc" class="tw" style="--o:0.42;--d:5.9s;--delay:-5.0s"/>
<circle cx="1355.7" cy="0.5" r="0.55" fill="#ffb4a3" class="tw" style="--o:0.37;--d:6.4s;--delay:-4.9s"/>
<circle cx="1007.1" cy="778.5" r="0.62" fill="#e8eefc" class="tw" style="--o:0.14;--d:6.4s;--delay:-2.1s"/>
<circle cx="394.2" cy="101.0" r="0.45" fill="#e8eefc" class="tw" style="--o:0.43;--d:4.9s;--delay:-4.5s"/>
<circle cx="1171.0" cy="131.0" r="0.91" fill="#e8eefc" class="tw" style="--o:0.15;--d:3.6s;--delay:-5.9s"/>
<circle cx="1285.5" cy="304.1" r="1.02" fill="#ffb4a3" class="tw" style="--o:0.16;--d:6.0s;--delay:-3.0s"/>
<circle cx="1582.9" cy="213.2" r="0.61" fill="#e8eefc" class="tw" style="--o:0.42;--d:3.9s;--delay:-7.4s"/>
<circle cx="932.4" cy="243.0" r="0.88" fill="#e8eefc" class="tw" style="--o:0.26;--d:6.3s;--delay:-4.2s"/>
<circle cx="1386.4" cy="182.8" r="0.56" fill="#bdd1ff" opacity="0.59"/>
<circle cx="303.7" cy="739.4" r="1.15" fill="#e8eefc" opacity="0.18"/>
<circle cx="965.7" cy="421.5" r="0.58" fill="#ffce9e" opacity="0.17"/>
<circle cx="1127.3" cy="257.0" r="1.06" fill="#e8eefc" class="tw" style="--o:0.35;--d:3.4s;--delay:-2.4s"/>
<circle cx="365.4" cy="559.4" r="1.08" fill="#e8eefc" class="tw" style="--o:0.36;--d:6.2s;--delay:-6.4s"/>
<circle cx="430.7" cy="445.7" r="0.45" fill="#e8eefc" class="tw" style="--o:0.17;--d:4.9s;--delay:-7.0s"/>
<circle cx="1425.5" cy="980.5" r="1.09" fill="#bdd1ff" class="tw" style="--o:0.49;--d:3.3s;--delay:-7.7s"/>
<circle cx="1456.3" cy="701.0" r="1.17" fill="#e8eefc" opacity="0.11"/>
<circle cx="1168.8" cy="318.9" r="1.45" fill="#bdd1ff" class="tw" style="--o:0.18;--d:5.5s;--delay:-1.0s"/>
<circle cx="1125.9" cy="793.3" r="1.23" fill="#fff0d6" opacity="0.33"/>
<circle cx="1393.8" cy="417.2" r="1.13" fill="#ffce9e" class="tw" style="--o:0.49;--d:5.1s;--delay:-5.0s"/>
<circle cx="974.2" cy="80.2" r="1.3" fill="#ffffff" opacity="0.92"/>
<circle cx="621.5" cy="735.0" r="0.96" fill="#fff0d6" opacity="0.37"/>
<circle cx="1200.3" cy="29.8" r="0.88" fill="#e8eefc" class="tw" style="--o:0.3;--d:5.4s;--delay:-4.1s"/>
<circle cx="1472.7" cy="255.8" r="0.61" fill="#ffffff" opacity="0.6"/>
<circle cx="271.4" cy="905.7" r="0.93" fill="#e8eefc" opacity="0.29"/>
<circle cx="1065.4" cy="198.5" r="0.74" fill="#e8eefc" opacity="0.44"/>
<circle cx="615.1" cy="583.1" r="0.75" fill="#ffce9e" class="tw" style="--o:0.21;--d:5.9s;--delay:-1.4s"/>
<circle cx="1520.0" cy="276.8" r="0.79" fill="#ffffff" class="tw" style="--o:0.67;--d:3.6s;--delay:-4.8s"/>
<circle cx="790.2" cy="315.4" r="1.52" fill="#ffffff" class="tw" style="--o:0.91;--d:3.1s;--delay:-7.8s"/>
<circle cx="66.4" cy="708.6" r="0.96" fill="#ffce9e" opacity="0.28"/>
<circle cx="217.4" cy="454.8" r="0.42" fill="#e8eefc" class="tw" style="--o:0.45;--d:3.3s;--delay:-7.6s"/>
<circle cx="714.4" cy="630.0" r="1.32" fill="#ffffff" opacity="0.83"/>
<circle cx="318.9" cy="475.1" r="0.8" fill="#ffffff" class="tw" style="--o:0.46;--d:5.4s;--delay:-6.6s"/>
<circle cx="553.2" cy="697.3" r="0.82" fill="#e8eefc" opacity="0.36"/>
<circle cx="1267.1" cy="906.2" r="0.49" fill="#bdd1ff" opacity="0.61"/>
<circle cx="725.7" cy="625.5" r="1.13" fill="#e8eefc" class="tw" style="--o:0.26;--d:6.1s;--delay:-1.8s"/>
<circle cx="741.9" cy="651.3" r="0.54" fill="#ffb4a3" opacity="0.32"/>
<circle cx="1148.3" cy="213.3" r="1.59" fill="#ffffff" opacity="0.91"/>
<circle cx="1265.3" cy="320.4" r="1.36" fill="#bdd1ff" class="tw" style="--o:0.57;--d:3.1s;--delay:-4.6s"/>
<circle cx="1229.2" cy="487.4" r="0.43" fill="#bdd1ff" class="tw" style="--o:0.54;--d:5.8s;--delay:-6.7s"/>
<circle cx="1260.6" cy="140.5" r="0.56" fill="#bdd1ff" opacity="0.4"/>
<circle cx="1103.0" cy="945.7" r="0.89" fill="#ffce9e" class="tw" style="--o:0.52;--d:3.6s;--delay:-3.9s"/>
<circle cx="1166.1" cy="638.9" r="0.82" fill="#e8eefc" class="tw" style="--o:0.45;--d:4.0s;--delay:-5.0s"/>
<circle cx="1440.8" cy="208.2" r="1.18" fill="#ffce9e" class="tw" style="--o:0.53;--d:4.9s;--delay:-6.4s"/>
<circle cx="805.1" cy="605.2" r="0.43" fill="#bdd1ff" class="tw" style="--o:0.62;--d:4.3s;--delay:-1.8s"/>
<circle cx="785.7" cy="691.0" r="0.47" fill="#bdd1ff" class="tw" style="--o:0.41;--d:6.3s;--delay:-0.8s"/>
<circle cx="757.1" cy="127.0" r="0.75" fill="#e8eefc" opacity="0.44"/>
<circle cx="507.5" cy="191.5" r="1.05" fill="#bdd1ff" class="tw" style="--o:0.6;--d:5.7s;--delay:-7.8s"/>
<circle cx="363.6" cy="687.0" r="0.66" fill="#e8eefc" opacity="0.25"/>
<circle cx="1169.4" cy="122.8" r="0.81" fill="#e8eefc" class="tw" style="--o:0.21;--d:4.8s;--delay:-4.6s"/>
<circle cx="661.4" cy="529.3" r="0.57" fill="#bdd1ff" opacity="0.24"/>
<circle cx="847.4" cy="851.3" r="1.27" fill="#ffffff" class="tw" style="--o:0.85;--d:5.5s;--delay:-1.7s"/>
<circle cx="505.4" cy="315.0" r="1.24" fill="#ffce9e" opacity="0.24"/>
<circle cx="214.3" cy="239.3" r="1.08" fill="#ffce9e" class="tw" style="--o:0.26;--d:5.9s;--delay:-4.7s"/>
<circle cx="201.6" cy="402.8" r="1.05" fill="#fff0d6" class="tw" style="--o:0.19;--d:5.3s;--delay:-0.9s"/>
<circle cx="184.7" cy="505.7" r="0.93" fill="#ffb4a3" opacity="0.25"/>
<circle cx="112.9" cy="106.2" r="0.43" fill="#e8eefc" class="tw" style="--o:0.33;--d:4.9s;--delay:-6.9s"/>
<circle cx="326.3" cy="840.2" r="1.19" fill="#e8eefc" class="tw" style="--o:0.49;--d:3.0s;--delay:-0.6s"/>
<circle cx="1223.6" cy="326.8" r="0.89" fill="#bdd1ff" class="tw" style="--o:0.4;--d:5.0s;--delay:-7.9s"/>
<circle cx="1350.8" cy="181.3" r="1.1" fill="#ffffff" class="tw" style="--o:0.8;--d:3.5s;--delay:-6.7s"/>
<circle cx="24.7" cy="893.2" r="1.24" fill="#bdd1ff" opacity="0.49"/>
<circle cx="647.2" cy="599.6" r="1.15" fill="#ffffff" opacity="0.91"/>
<circle cx="1458.1" cy="744.4" r="1.02" fill="#e8eefc" class="tw" style="--o:0.44;--d:6.1s;--delay:-1.1s"/>
<circle cx="1227.6" cy="765.2" r="1.05" fill="#ffffff" class="tw" style="--o:0.79;--d:4.1s;--delay:-4.3s"/>
<circle cx="569.0" cy="638.7" r="0.9" fill="#e8eefc" opacity="0.2"/>
<circle cx="540.5" cy="659.8" r="1.23" fill="#ffffff" class="tw" style="--o:0.71;--d:6.5s;--delay:-3.0s"/>
<circle cx="1218.8" cy="980.1" r="0.63" fill="#ffffff" opacity="0.74"/>
<circle cx="642.5" cy="50.5" r="0.56" fill="#e8eefc" class="tw" style="--o:0.26;--d:3.7s;--delay:-0.9s"/>
<circle cx="812.5" cy="967.1" r="1.0" fill="#bdd1ff" opacity="0.64"/>
<circle cx="121.9" cy="597.5" r="1.11" fill="#fff0d6" opacity="0.2"/>
<circle cx="754.8" cy="169.1" r="0.8" fill="#e8eefc" class="tw" style="--o:0.36;--d:6.3s;--delay:-4.7s"/>
<circle cx="956.5" cy="365.6" r="0.7" fill="#bdd1ff" class="tw" style="--o:0.47;--d:3.8s;--delay:-2.4s"/>
<circle cx="22.4" cy="245.0" r="0.43" fill="#e8eefc" opacity="0.17"/>
<circle cx="1436.1" cy="748.4" r="0.45" fill="#bdd1ff" opacity="0.63"/>
<circle cx="1448.9" cy="429.5" r="0.78" fill="#e8eefc" class="tw" style="--o:0.51;--d:4.7s;--delay:-0.7s"/>
<circle cx="749.4" cy="978.8" r="1.15" fill="#fff0d6" class="tw" style="--o:0.43;--d:5.1s;--delay:-4.4s"/>
<circle cx="83.3" cy="528.1" r="0.5" fill="#e8eefc" opacity="0.29"/>
<circle cx="419.4" cy="582.2" r="0.84" fill="#bdd1ff" class="tw" style="--o:0.53;--d:6.5s;--delay:-0.6s"/>
<circle cx="381.5" cy="113.9" r="1.21" fill="#fff0d6" opacity="0.51"/>
<circle cx="434.4" cy="685.0" r="0.99" fill="#bdd1ff" opacity="0.44"/>
<circle cx="303.7" cy="249.0" r="1.28" fill="#fff0d6" opacity="0.56"/>
<circle cx="97.3" cy="270.9" r="0.74" fill="#e8eefc" class="tw" style="--o:0.36;--d:4.8s;--delay:-7.4s"/>
<circle cx="1082.0" cy="550.6" r="0.9" fill="#e8eefc" class="tw" style="--o:0.26;--d:3.6s;--delay:-5.3s"/>
<circle cx="1341.7" cy="74.3" r="0.6" fill="#fff0d6" opacity="0.52"/>
<circle cx="341.1" cy="424.4" r="0.71" fill="#fff0d6" class="tw" style="--o:0.52;--d:5.2s;--delay:-0.3s"/>
<circle cx="877.8" cy="746.1" r="1.14" fill="#e8eefc" class="tw" style="--o:0.28;--d:3.2s;--delay:-1.2s"/>
<circle cx="132.8" cy="564.2" r="0.79" fill="#e8eefc" class="tw" style="--o:0.39;--d:5.7s;--delay:-7.4s"/>
<circle cx="1059.4" cy="81.7" r="0.64" fill="#e8eefc" opacity="0.4"/>
<circle cx="228.7" cy="357.8" r="0.98" fill="#e8eefc" class="tw" style="--o:0.25;--d:5.4s;--delay:-3.6s"/>
<circle cx="1503.9" cy="913.4" r="0.85" fill="#ffce9e" class="tw" style="--o:0.47;--d:4.0s;--delay:-4.9s"/>
<circle cx="1431.6" cy="248.3" r="0.65" fill="#ffb4a3" class="tw" style="--o:0.21;--d:4.3s;--delay:-5.0s"/>
<circle cx="902.1" cy="797.1" r="0.83" fill="#e8eefc" class="tw" style="--o:0.45;--d:3.5s;--delay:-2.1s"/>
<circle cx="450.3" cy="22.2" r="0.91" fill="#ffce9e" class="tw" style="--o:0.37;--d:6.4s;--delay:-2.9s"/>
<circle cx="102.5" cy="546.8" r="1.13" fill="#fff0d6" class="tw" style="--o:0.22;--d:5.5s;--delay:-1.0s"/>
<circle cx="1014.6" cy="143.9" r="1.0" fill="#e8eefc" class="tw" style="--o:0.37;--d:3.6s;--delay:-2.0s"/>
<circle cx="1223.5" cy="394.4" r="0.75" fill="#bdd1ff" opacity="0.62"/>
<circle cx="859.7" cy="720.9" r="1.14" fill="#bdd1ff" class="tw" style="--o:0.6;--d:5.9s;--delay:-2.8s"/>
<circle cx="1289.5" cy="833.8" r="1.21" fill="#ffce9e" opacity="0.52"/>
<circle cx="1136.1" cy="802.3" r="0.84" fill="#bdd1ff" class="tw" style="--o:0.35;--d:5.5s;--delay:-0.3s"/>
<circle cx="268.2" cy="204.4" r="0.85" fill="#bdd1ff" opacity="0.29"/>
<circle cx="493.5" cy="114.8" r="0.92" fill="#e8eefc" class="tw" style="--o:0.43;--d:3.0s;--delay:-4.4s"/>
<circle cx="1454.9" cy="36.4" r="0.72" fill="#ffffff" class="tw" style="--o:0.54;--d:3.7s;--delay:-2.4s"/>
<circle cx="358.3" cy="185.0" r="0.91" fill="#ffffff" opacity="0.54"/>
<circle cx="877.2" cy="817.1" r="0.78" fill="#e8eefc" opacity="0.21"/>
<circle cx="547.3" cy="547.3" r="1.27" fill="#ffce9e" class="tw" style="--o:0.34;--d:3.0s;--delay:-0.6s"/>
<circle cx="616.0" cy="527.6" r="0.91" fill="#fff0d6" opacity="0.3"/>
<circle cx="380.2" cy="10.9" r="1.12" fill="#ffffff" opacity="0.63"/>
<circle cx="969.7" cy="157.3" r="0.63" fill="#fff0d6" class="tw" style="--o:0.32;--d:6.0s;--delay:-4.0s"/>
<circle cx="1589.0" cy="266.5" r="1.19" fill="#ffffff" opacity="0.53"/>
<circle cx="1314.3" cy="846.2" r="1.06" fill="#e8eefc" class="tw" style="--o:0.13;--d:5.5s;--delay:-7.2s"/>
<circle cx="749.9" cy="955.5" r="1.02" fill="#bdd1ff" class="tw" style="--o:0.57;--d:5.7s;--delay:-4.7s"/>
<circle cx="145.5" cy="826.3" r="0.67" fill="#ffce9e" class="tw" style="--o:0.37;--d:3.4s;--delay:-1.5s"/>
<circle cx="497.2" cy="76.0" r="0.64" fill="#e8eefc" opacity="0.3"/>
<circle cx="1099.4" cy="105.8" r="0.81" fill="#bdd1ff" opacity="0.37"/>
<circle cx="1046.3" cy="12.3" r="0.8" fill="#fff0d6" class="tw" style="--o:0.48;--d:4.9s;--delay:-4.4s"/>
<circle cx="1586.6" cy="799.5" r="0.57" fill="#e8eefc" class="tw" style="--o:0.36;--d:4.2s;--delay:-3.8s"/>
<circle cx="539.8" cy="392.2" r="0.93" fill="#e8eefc" class="tw" style="--o:0.21;--d:5.5s;--delay:-5.4s"/>
<circle cx="900.5" cy="723.8" r="0.63" fill="#ffb4a3" class="tw" style="--o:0.35;--d:3.3s;--delay:-7.3s"/>
<circle cx="1133.3" cy="179.9" r="1.04" fill="#ffffff" class="tw" style="--o:0.84;--d:3.1s;--delay:-6.2s"/>
<circle cx="198.6" cy="406.8" r="0.46" fill="#e8eefc" class="tw" style="--o:0.49;--d:4.7s;--delay:-3.0s"/>
<circle cx="1313.8" cy="385.9" r="0.77" fill="#fff0d6" class="tw" style="--o:0.35;--d:4.3s;--delay:-2.5s"/>
<circle cx="1263.5" cy="660.2" r="0.83" fill="#ffb4a3" class="tw" style="--o:0.11;--d:4.1s;--delay:-2.9s"/>
<circle cx="604.2" cy="509.4" r="1.03" fill="#e8eefc" opacity="0.45"/>
<circle cx="1226.4" cy="903.0" r="0.84" fill="#e8eefc" class="tw" style="--o:0.25;--d:3.3s;--delay:-2.4s"/>
<circle cx="825.7" cy="715.4" r="0.98" fill="#ffb4a3" opacity="0.16"/>
<circle cx="316.6" cy="83.2" r="0.87" fill="#ffffff" opacity="0.73"/>
<circle cx="1486.5" cy="361.2" r="0.77" fill="#e8eefc" opacity="0.15"/>
<circle cx="1446.5" cy="543.4" r="0.85" fill="#e8eefc" class="tw" style="--o:0.34;--d:6.2s;--delay:-0.3s"/>
<circle cx="962.4" cy="122.7" r="1.16" fill="#fff0d6" opacity="0.3"/>
<circle cx="917.7" cy="830.8" r="0.55" fill="#e8eefc" class="tw" style="--o:0.33;--d:2.9s;--delay:-6.6s"/>
<circle cx="1503.1" cy="658.4" r="0.62" fill="#ffb4a3" opacity="0.3"/>
<circle cx="947.0" cy="803.8" r="0.42" fill="#bdd1ff" class="tw" style="--o:0.24;--d:3.3s;--delay:-5.0s"/>
<circle cx="277.9" cy="519.8" r="0.68" fill="#bdd1ff" class="tw" style="--o:0.42;--d:5.2s;--delay:-7.7s"/>
<circle cx="231.6" cy="959.3" r="1.26" fill="#ffffff" class="tw" style="--o:0.68;--d:5.1s;--delay:-2.6s"/>
<circle cx="1202.7" cy="485.8" r="1.3" fill="#fff0d6" opacity="0.53"/>
<circle cx="694.3" cy="566.0" r="1.35" fill="#bdd1ff" class="tw" style="--o:0.4;--d:4.4s;--delay:-0.9s"/>
<circle cx="87.5" cy="725.6" r="1.12" fill="#e8eefc" class="tw" style="--o:0.41;--d:5.6s;--delay:-5.6s"/>
<circle cx="111.7" cy="124.4" r="1.09" fill="#ffffff" class="tw" style="--o:0.69;--d:3.0s;--delay:-2.6s"/>
<circle cx="382.6" cy="306.3" r="0.82" fill="#bdd1ff" class="tw" style="--o:0.26;--d:6.2s;--delay:-0.5s"/>
<circle cx="1386.4" cy="421.4" r="1.49" fill="#ffffff" opacity="0.56"/>
<circle cx="1445.5" cy="98.6" r="1.23" fill="#bdd1ff" class="tw" style="--o:0.2;--d:6.3s;--delay:-8.0s"/>
<circle cx="478.8" cy="324.8" r="0.45" fill="#e8eefc" opacity="0.48"/>
<circle cx="570.4" cy="585.5" r="0.45" fill="#bdd1ff" opacity="0.16"/>
<circle cx="797.5" cy="933.9" r="1.18" fill="#e8eefc" class="tw" style="--o:0.3;--d:3.9s;--delay:-0.8s"/>
<circle cx="312.8" cy="837.9" r="0.78" fill="#ffce9e" class="tw" style="--o:0.34;--d:6.1s;--delay:-0.2s"/>
<circle cx="1011.8" cy="191.5" r="1.1" fill="#e8eefc" class="tw" style="--o:0.12;--d:5.5s;--delay:-5.6s"/>
<circle cx="1391.3" cy="713.1" r="0.61" fill="#ffce9e" opacity="0.42"/>
<circle cx="126.4" cy="223.2" r="0.72" fill="#bdd1ff" class="tw" style="--o:0.5;--d:3.5s;--delay:-6.2s"/>
<circle cx="1264.8" cy="372.5" r="1.33" fill="#ffffff" class="tw" style="--o:0.87;--d:3.6s;--delay:-5.7s"/>
<circle cx="1067.3" cy="276.8" r="1.01" fill="#ffce9e" opacity="0.19"/>
<circle cx="710.5" cy="430.9" r="7.2" fill="#ffffff" opacity="0.09"/>
<circle cx="710.5" cy="430.9" r="2.0" fill="#ffffff" class="twf" style="--o:0.95;--d:7.1s;--delay:-8.6s"/>
<circle cx="949.5" cy="250.6" r="6.84" fill="#cfe0ff" opacity="0.09"/>
<circle cx="949.5" cy="250.6" r="1.9" fill="#cfe0ff" class="twf" style="--o:0.95;--d:6.0s;--delay:-2.0s"/>
<circle cx="180.7" cy="251.0" r="6.12" fill="#ffffff" opacity="0.09"/>
<circle cx="180.7" cy="251.0" r="1.7" fill="#ffffff" class="twf" style="--o:0.95;--d:8.0s;--delay:-6.9s"/>
<circle cx="468.7" cy="445.6" r="6.48" fill="#ffe6c4" opacity="0.09"/>
<circle cx="468.7" cy="445.6" r="1.8" fill="#ffe6c4" class="twf" style="--o:0.95;--d:5.7s;--delay:-1.2s"/>
<circle cx="1531.6" cy="64.9" r="5.76" fill="#cfe0ff" opacity="0.09"/>
<circle cx="1531.6" cy="64.9" r="1.6" fill="#cfe0ff" class="twf" style="--o:0.95;--d:6.8s;--delay:-2.5s"/>
<circle cx="627.1" cy="727.7" r="7.56" fill="#fff4f0" opacity="0.09"/>
<circle cx="627.1" cy="727.7" r="2.1" fill="#fff4f0" class="twf" style="--o:0.95;--d:7.0s;--delay:-7.4s"/>
</svg>